<svg width="24" height="24" viewBox="0 0 24 24" fill="none" xmlns="http://www.w3.org/2000/svg">
<path d="M6 15.375C7.86396 15.375 9.375 13.864 9.375 12C9.375 10.136 7.86396 8.625 6 8.625C4.13604 8.625 2.625 10.136 2.625 12C2.625 13.864 4.13604 15.375 6 15.375Z" stroke="white" stroke-width="1.5" stroke-linecap="round" stroke-linejoin="round"/>
<path d="M18 21.375C19.864 21.375 21.375 19.864 21.375 18C21.375 16.136 19.864 14.625 18 14.625C16.136 14.625 14.625 16.136 14.625 18C14.625 19.864 16.136 21.375 18 21.375Z" stroke="white" stroke-width="1.5" stroke-linecap="round" stroke-linejoin="round"/>
<path d="M18 9.375C19.864 9.375 21.375 7.86396 21.375 6C21.375 4.13604 19.864 2.625 18 2.625C16.136 2.625 14.625 4.13604 14.625 6C14.625 7.86396 16.136 9.375 18 9.375Z" stroke="white" stroke-width="1.5" stroke-linecap="round" stroke-linejoin="round"/>
<path d="M9 10.5L15 7.5M9 13.5L15 16.5L9 13.5Z" stroke="white" stroke-width="1.5" stroke-linecap="round" stroke-linejoin="round"/>
</svg>
