<svg width="19" height="19" viewBox="0 0 19 19" fill="none" xmlns="http://www.w3.org/2000/svg">
<path fill-rule="evenodd" clip-rule="evenodd" d="M14.3952 12.9761C16.8519 9.82094 16.63 5.25613 13.7295 2.35561C10.5887 -0.785202 5.49641 -0.785202 2.35561 2.35561C-0.785202 5.49642 -0.785202 10.5887 2.35561 13.7295C5.25613 16.63 9.82094 16.8519 12.9761 14.3952C12.9897 14.4106 13.0039 14.4256 13.0186 14.4403L17.2838 18.7056C17.6764 19.0982 18.313 19.0982 18.7056 18.7056C19.0982 18.3129 19.0982 17.6764 18.7056 17.2838L14.4403 13.0186C14.4256 13.0039 14.4106 12.9897 14.3952 12.9761ZM12.3077 3.77734C14.6634 6.13295 14.6634 9.95214 12.3077 12.3077C9.95214 14.6634 6.13295 14.6634 3.77734 12.3077C1.42173 9.95214 1.42173 6.13295 3.77734 3.77734C6.13295 1.42173 9.95214 1.42173 12.3077 3.77734Z" fill="white"/>
</svg>
